<svg width="1832" height="960" viewBox="0 0 1832 960" fill="none" xmlns="http://www.w3.org/2000/svg">
<g clip-path="url(#clip0_2_39)">
<rect width="1832" height="960" fill="#FFE4B5" fill-opacity="0.95"/>
<circle cx="198.5" cy="175.5" r="82.5" fill="#008B8B"/>
<circle cx="403.5" cy="541.5" r="82.5" fill="#90EE90"/>
<circle cx="756.5" cy="323.5" r="134.5" fill="#FFA500"/>
<circle cx="1049.5" cy="823.5" r="197.5" fill="#87CEFA"/>
<circle cx="1445.5" cy="450.5" r="173.5" fill="#3CB371"/>
<circle cx="1735" cy="799" r="94" fill="#FFDAB9"/>
<circle cx="1876" cy="82" r="116" fill="#3CB371"/>
<circle cx="73" cy="893" r="183" fill="#F5DEB3"/>
<circle cx="1381.5" cy="142.5" r="49.5" fill="#DDA0DD"/>
<rect x="1091.84" y="-119" width="284.037" height="284.037" transform="rotate(45 1091.84 -119)" fill="#DB7093"/>
<rect x="603.095" y="563" width="246.207" height="246.207" transform="rotate(45 603.095 563)" fill="#8A2BE2"/>
<rect x="1771.11" y="346" width="148.655" height="148.655" transform="rotate(45 1771.11 346)" fill="#FFB6C1"/>
<path d="M567.627 42.9907L525.172 256.472L361.519 112.964L567.627 42.9907Z" fill="#FFFACD"/>
<path d="M1545.18 97.4956L1727.16 140.784L1598.68 276.742L1545.18 97.4956Z" fill="#DCDCDC"/>
<path d="M1326.18 723.496L1508.16 766.784L1379.68 902.742L1326.18 723.496Z" fill="#4169E1"/>
<rect x="100" y="335" width="66" height="277" fill="#FFA07A"/>
<g style="mix-blend-mode:exclusion">
<path d="M479.864 334.909V403.783C479.864 416.248 471.129 425.25 457.705 425.25C444.335 425.25 435.546 416.248 435.546 403.783V334.909H412.482V405.754C412.482 429.618 430.486 445.545 457.705 445.545C484.818 445.545 502.929 429.618 502.929 405.754V334.909H479.864ZM541.97 334.909H518.905V444H541.97V334.909ZM685.917 373.102C682.881 347.906 663.811 333.418 638.562 333.418C609.745 333.418 587.746 353.766 587.746 389.455C587.746 425.037 609.372 445.491 638.562 445.491C666.528 445.491 683.413 426.901 685.917 406.82L662.586 406.713C660.402 418.379 651.24 425.09 638.935 425.09C622.369 425.09 611.13 412.786 611.13 389.455C611.13 366.763 622.209 353.819 639.095 353.819C651.719 353.819 660.828 361.116 662.586 373.102H685.917ZM735.997 445.598C760.82 445.598 776.267 428.606 776.267 403.411C776.267 378.055 760.82 361.116 735.997 361.116C711.175 361.116 695.727 378.055 695.727 403.411C695.727 428.606 711.175 445.598 735.997 445.598ZM736.104 428.02C724.651 428.02 718.792 417.526 718.792 403.251C718.792 388.975 724.651 378.428 736.104 378.428C747.343 378.428 753.203 388.975 753.203 403.251C753.203 417.526 747.343 428.02 736.104 428.02ZM810.714 334.909H788.022V444H810.714V334.909ZM862.859 445.598C887.681 445.598 903.129 428.606 903.129 403.411C903.129 378.055 887.681 361.116 862.859 361.116C838.036 361.116 822.589 378.055 822.589 403.411C822.589 428.606 838.036 445.598 862.859 445.598ZM862.965 428.02C851.513 428.02 845.653 417.526 845.653 403.251C845.653 388.975 851.513 378.428 862.965 378.428C874.205 378.428 880.064 388.975 880.064 403.251C880.064 417.526 874.205 428.02 862.965 428.02ZM914.884 444H937.575V397.711C937.575 387.643 944.926 380.719 954.94 380.719C958.083 380.719 962.398 381.251 964.528 381.944V361.809C962.504 361.33 959.681 361.01 957.391 361.01C948.229 361.01 940.718 366.337 937.735 376.457H936.883V362.182H914.884V444ZM1005.4 444H1028.47V408.631H1047.86C1072.95 408.631 1087.54 393.663 1087.54 371.876C1087.54 350.197 1073.21 334.909 1048.44 334.909H1005.4V444ZM1028.47 390.147V353.766H1044.02C1057.34 353.766 1063.78 361.01 1063.78 371.876C1063.78 382.69 1057.34 390.147 1044.13 390.147H1028.47ZM1099.1 444H1121.79V362.182H1099.1V444ZM1110.5 351.635C1117.26 351.635 1122.8 346.468 1122.8 340.129C1122.8 333.844 1117.26 328.677 1110.5 328.677C1103.78 328.677 1098.24 333.844 1098.24 340.129C1098.24 346.468 1103.78 351.635 1110.5 351.635ZM1173.93 445.598C1195.72 445.598 1209.41 432.814 1210.47 414.011H1189.06C1187.73 422.746 1181.98 427.647 1174.2 427.647C1163.6 427.647 1156.73 418.751 1156.73 403.091C1156.73 387.643 1163.65 378.801 1174.2 378.801C1182.51 378.801 1187.84 384.288 1189.06 392.438H1210.47C1209.52 373.528 1195.19 361.116 1173.83 361.116C1149 361.116 1133.66 378.322 1133.66 403.411C1133.66 428.286 1148.74 445.598 1173.93 445.598ZM1222 444H1244.69V418.006L1250.82 411.028L1273.14 444H1299.72L1267.81 397.604L1298.17 362.182H1272.13L1245.92 393.237H1244.69V334.909H1222V444ZM1340.23 445.598C1360.47 445.598 1374.1 435.744 1377.3 420.562L1356.31 419.178C1354.02 425.41 1348.16 428.659 1340.6 428.659C1329.25 428.659 1322.06 421.148 1322.06 408.95V408.897H1377.78V402.665C1377.78 374.859 1360.95 361.116 1339.32 361.116C1315.24 361.116 1299.64 378.215 1299.64 403.464C1299.64 429.405 1315.03 445.598 1340.23 445.598ZM1322.06 394.835C1322.54 385.513 1329.62 378.055 1339.69 378.055C1349.55 378.055 1356.37 385.087 1356.42 394.835H1322.06ZM1389.59 444H1412.28V397.711C1412.28 387.643 1419.63 380.719 1429.64 380.719C1432.79 380.719 1437.1 381.251 1439.23 381.944V361.809C1437.21 361.33 1434.38 361.01 1432.09 361.01C1422.93 361.01 1415.42 366.337 1412.44 376.457H1411.59V362.182H1389.59V444Z" fill="#FFFFE0"/>
</g>
<g style="mix-blend-mode:exclusion">
<path d="M584.439 519H589.536L596.576 493.942H596.837L603.878 519H608.958L618.253 485.545H612.928L606.426 511.469H606.116L599.337 485.545H594.077L587.298 511.453H586.987L580.469 485.545H575.161L584.439 519ZM629.886 519.506C635.359 519.506 639.23 516.811 640.341 512.727L635.718 511.894C634.836 514.263 632.712 515.472 629.935 515.472C625.754 515.472 622.944 512.76 622.813 507.925H640.651V506.193C640.651 497.127 635.228 493.582 629.543 493.582C622.552 493.582 617.945 498.908 617.945 506.618C617.945 514.41 622.487 519.506 629.886 519.506ZM622.83 504.266C623.026 500.705 625.607 497.617 629.576 497.617C633.366 497.617 635.849 500.427 635.865 504.266H622.83ZM645.543 519H650.313V515.096H650.721C651.603 516.697 653.4 519.49 657.974 519.49C664.05 519.49 668.461 514.622 668.461 506.504C668.461 498.369 663.985 493.582 657.925 493.582C653.269 493.582 651.587 496.425 650.721 497.977H650.427V485.545H645.543V519ZM650.329 506.455C650.329 501.211 652.616 497.732 656.879 497.732C661.306 497.732 663.528 501.472 663.528 506.455C663.528 511.486 661.241 515.325 656.879 515.325C652.681 515.325 650.329 511.731 650.329 506.455ZM691.827 500.035C690.815 496.131 687.76 493.582 682.337 493.582C676.668 493.582 672.65 496.572 672.65 501.015C672.65 504.576 674.806 506.945 679.511 507.99L683.758 508.921C686.175 509.46 687.303 510.538 687.303 512.107C687.303 514.05 685.228 515.57 682.026 515.57C679.102 515.57 677.224 514.312 676.636 511.845L671.915 512.564C672.731 517.007 676.423 519.506 682.059 519.506C688.119 519.506 692.317 516.288 692.317 511.747C692.317 508.202 690.063 506.013 685.457 504.952L681.471 504.037C678.71 503.384 677.518 502.452 677.534 500.754C677.518 498.826 679.609 497.454 682.386 497.454C685.424 497.454 686.829 499.136 687.401 500.819L691.827 500.035ZM696.768 519H701.652V493.909H696.768V519ZM699.234 490.038C700.917 490.038 702.322 488.731 702.322 487.13C702.322 485.529 700.917 484.206 699.234 484.206C697.535 484.206 696.147 485.529 696.147 487.13C696.147 488.731 697.535 490.038 699.234 490.038ZM719.015 493.909H713.869V487.898H708.985V493.909H705.31V497.83H708.985V512.646C708.969 517.203 712.448 519.408 716.303 519.327C717.855 519.31 718.901 519.016 719.472 518.804L718.59 514.769C718.264 514.835 717.659 514.982 716.875 514.982C715.291 514.982 713.869 514.459 713.869 511.633V497.83H719.015V493.909ZM734.042 519.506C739.515 519.506 743.386 516.811 744.497 512.727L739.874 511.894C738.992 514.263 736.868 515.472 734.091 515.472C729.91 515.472 727.1 512.76 726.969 507.925H744.807V506.193C744.807 497.127 739.384 493.582 733.699 493.582C726.708 493.582 722.101 498.908 722.101 506.618C722.101 514.41 726.642 519.506 734.042 519.506ZM726.986 504.266C727.182 500.705 729.762 497.617 733.732 497.617C737.522 497.617 740.005 500.427 740.021 504.266H726.986ZM782.025 493.909H776.781L770.443 513.217H770.182L763.827 493.909H758.584L767.699 519H772.926L782.025 493.909ZM785.695 519H790.579V493.909H785.695V519ZM788.162 490.038C789.844 490.038 791.249 488.731 791.249 487.13C791.249 485.529 789.844 484.206 788.162 484.206C786.463 484.206 785.074 485.529 785.074 487.13C785.074 488.731 786.463 490.038 788.162 490.038ZM807.044 519.506C812.516 519.506 816.388 516.811 817.499 512.727L812.876 511.894C811.994 514.263 809.87 515.472 807.093 515.472C802.911 515.472 800.102 512.76 799.971 507.925H817.809V506.193C817.809 497.127 812.386 493.582 806.701 493.582C799.709 493.582 795.103 498.908 795.103 506.618C795.103 514.41 799.644 519.506 807.044 519.506ZM799.987 504.266C800.183 500.705 802.764 497.617 806.734 497.617C810.523 497.617 813.006 500.427 813.023 504.266H799.987ZM827.703 519H832.669L837.765 500.884H838.141L843.238 519H848.22L855.587 493.909H850.539L845.655 512.254H845.41L840.51 493.909H835.462L830.529 512.335H830.284L825.367 493.909H820.319L827.703 519ZM875.44 504.102C875.44 500.1 877.891 497.813 881.288 497.813C884.604 497.813 886.614 499.986 886.614 503.629V519H891.498V503.04C891.498 496.833 888.084 493.582 882.954 493.582C879.181 493.582 876.714 495.33 875.555 497.993H875.244V493.909H870.556V519H875.44V504.102ZM907.697 519.506C914.77 519.506 919.393 514.328 919.393 506.569C919.393 498.761 914.77 493.582 907.697 493.582C900.624 493.582 896.001 498.761 896.001 506.569C896.001 514.328 900.624 519.506 907.697 519.506ZM907.713 515.406C903.091 515.406 900.934 511.371 900.934 506.553C900.934 501.75 903.091 497.666 907.713 497.666C912.304 497.666 914.46 501.75 914.46 506.553C914.46 511.371 912.304 515.406 907.713 515.406ZM935.637 493.909H930.492V487.898H925.608V493.909H921.932V497.83H925.608V512.646C925.591 517.203 929.071 519.408 932.926 519.327C934.478 519.31 935.523 519.016 936.095 518.804L935.213 514.769C934.886 514.835 934.282 514.982 933.497 514.982C931.913 514.982 930.492 514.459 930.492 511.633V497.83H935.637V493.909ZM958.676 519.555C962.825 519.555 965.161 517.448 966.092 515.57H966.288V519H971.058V502.338C971.058 495.036 965.308 493.582 961.322 493.582C956.781 493.582 952.599 495.412 950.966 499.986L955.556 501.031C956.275 499.251 958.104 497.536 961.388 497.536C964.54 497.536 966.157 499.185 966.157 502.028V502.142C966.157 503.923 964.328 503.89 959.819 504.413C955.066 504.968 950.198 506.21 950.198 511.911C950.198 516.844 953.906 519.555 958.676 519.555ZM959.738 515.635C956.977 515.635 954.984 514.393 954.984 511.976C954.984 509.362 957.304 508.431 960.13 508.055C961.714 507.843 965.471 507.418 966.174 506.716V509.95C966.174 512.923 963.805 515.635 959.738 515.635ZM997.21 493.909H991.966L985.628 513.217H985.366L979.012 493.909H973.768L982.884 519H988.111L997.21 493.909ZM1007.42 519.555C1011.57 519.555 1013.9 517.448 1014.83 515.57H1015.03V519H1019.8V502.338C1019.8 495.036 1014.05 493.582 1010.06 493.582C1005.52 493.582 1001.34 495.412 999.708 499.986L1004.3 501.031C1005.02 499.251 1006.85 497.536 1010.13 497.536C1013.28 497.536 1014.9 499.185 1014.9 502.028V502.142C1014.9 503.923 1013.07 503.89 1008.56 504.413C1003.81 504.968 998.94 506.21 998.94 511.911C998.94 516.844 1002.65 519.555 1007.42 519.555ZM1008.48 515.635C1005.72 515.635 1003.73 514.393 1003.73 511.976C1003.73 509.362 1006.05 508.431 1008.87 508.055C1010.46 507.843 1014.21 507.418 1014.92 506.716V509.95C1014.92 512.923 1012.55 515.635 1008.48 515.635ZM1025.39 519H1030.27V493.909H1025.39V519ZM1027.85 490.038C1029.53 490.038 1030.94 488.731 1030.94 487.13C1030.94 485.529 1029.53 484.206 1027.85 484.206C1026.15 484.206 1024.76 485.529 1024.76 487.13C1024.76 488.731 1026.15 490.038 1027.85 490.038ZM1040.8 485.545H1035.92V519H1040.8V485.545ZM1053.76 519.555C1057.91 519.555 1060.24 517.448 1061.17 515.57H1061.37V519H1066.14V502.338C1066.14 495.036 1060.39 493.582 1056.4 493.582C1051.86 493.582 1047.68 495.412 1046.05 499.986L1050.64 501.031C1051.36 499.251 1053.19 497.536 1056.47 497.536C1059.62 497.536 1061.24 499.185 1061.24 502.028V502.142C1061.24 503.923 1059.41 503.89 1054.9 504.413C1050.15 504.968 1045.28 506.21 1045.28 511.911C1045.28 516.844 1048.99 519.555 1053.76 519.555ZM1054.82 515.635C1052.06 515.635 1050.07 514.393 1050.07 511.976C1050.07 509.362 1052.39 508.431 1055.21 508.055C1056.8 507.843 1060.55 507.418 1061.26 506.716V509.95C1061.26 512.923 1058.89 515.635 1054.82 515.635ZM1072.12 519H1076.89V515.096H1077.3C1078.18 516.697 1079.97 519.49 1084.55 519.49C1090.62 519.49 1095.04 514.622 1095.04 506.504C1095.04 498.369 1090.56 493.582 1084.5 493.582C1079.84 493.582 1078.16 496.425 1077.3 497.977H1077V485.545H1072.12V519ZM1076.9 506.455C1076.9 501.211 1079.19 497.732 1083.45 497.732C1087.88 497.732 1090.1 501.472 1090.1 506.455C1090.1 511.486 1087.82 515.325 1083.45 515.325C1079.26 515.325 1076.9 511.731 1076.9 506.455ZM1104.48 485.545H1099.6V519H1104.48V485.545ZM1120.95 519.506C1126.42 519.506 1130.29 516.811 1131.4 512.727L1126.78 511.894C1125.9 514.263 1123.78 515.472 1121 515.472C1116.82 515.472 1114.01 512.76 1113.88 507.925H1131.71V506.193C1131.71 497.127 1126.29 493.582 1120.61 493.582C1113.61 493.582 1109.01 498.908 1109.01 506.618C1109.01 514.41 1113.55 519.506 1120.95 519.506ZM1113.89 504.266C1114.09 500.705 1116.67 497.617 1120.64 497.617C1124.43 497.617 1126.91 500.427 1126.93 504.266H1113.89ZM1159.41 493.909H1154V491.655C1154 489.433 1154.92 488.224 1157.3 488.224C1158.31 488.224 1159.03 488.453 1159.49 488.6L1160.63 484.647C1159.95 484.386 1158.53 483.977 1156.55 483.977C1152.58 483.977 1149.1 486.297 1149.1 491.001V493.909H1145.23V497.83H1149.1V519H1154V497.83H1159.41V493.909ZM1173.11 519.506C1180.18 519.506 1184.8 514.328 1184.8 506.569C1184.8 498.761 1180.18 493.582 1173.11 493.582C1166.03 493.582 1161.41 498.761 1161.41 506.569C1161.41 514.328 1166.03 519.506 1173.11 519.506ZM1173.12 515.406C1168.5 515.406 1166.35 511.371 1166.35 506.553C1166.35 501.75 1168.5 497.666 1173.12 497.666C1177.71 497.666 1179.87 501.75 1179.87 506.553C1179.87 511.371 1177.71 515.406 1173.12 515.406ZM1189.34 519H1194.22V503.678C1194.22 500.394 1196.75 498.026 1200.22 498.026C1201.23 498.026 1202.37 498.205 1202.76 498.32V493.648C1202.27 493.582 1201.31 493.533 1200.69 493.533C1197.75 493.533 1195.23 495.2 1194.32 497.895H1194.06V493.909H1189.34V519ZM688.526 600H693.411V584.531C693.411 581.149 695.779 578.797 698.556 578.797C701.268 578.797 703.146 580.594 703.146 583.322V600H708.014V584.008C708.014 580.986 709.86 578.797 713.045 578.797C715.626 578.797 717.75 580.234 717.75 583.632V600H722.634V583.175C722.634 577.441 719.433 574.582 714.891 574.582C711.281 574.582 708.57 576.314 707.361 578.993H707.099C706.005 576.249 703.702 574.582 700.353 574.582C697.037 574.582 694.57 576.232 693.525 578.993H693.214V574.909H688.526V600ZM738.829 600.506C745.903 600.506 750.525 595.328 750.525 587.569C750.525 579.761 745.903 574.582 738.829 574.582C731.756 574.582 727.133 579.761 727.133 587.569C727.133 595.328 731.756 600.506 738.829 600.506ZM738.846 596.406C734.223 596.406 732.067 592.371 732.067 587.553C732.067 582.75 734.223 578.666 738.846 578.666C743.436 578.666 745.592 582.75 745.592 587.553C745.592 592.371 743.436 596.406 738.846 596.406ZM755.449 600H760.219V596.096H760.628C761.51 597.697 763.307 600.49 767.881 600.49C773.957 600.49 778.368 595.622 778.368 587.504C778.368 579.369 773.892 574.582 767.832 574.582C763.176 574.582 761.493 577.425 760.628 578.977H760.334V566.545H755.449V600ZM760.236 587.455C760.236 582.211 762.523 578.732 766.786 578.732C771.213 578.732 773.434 582.472 773.434 587.455C773.434 592.486 771.148 596.325 766.786 596.325C762.588 596.325 760.236 592.731 760.236 587.455ZM782.932 600H787.817V574.909H782.932V600ZM785.399 571.038C787.081 571.038 788.486 569.731 788.486 568.13C788.486 566.529 787.081 565.206 785.399 565.206C783.7 565.206 782.312 566.529 782.312 568.13C782.312 569.731 783.7 571.038 785.399 571.038ZM798.352 566.545H793.467V600H798.352V566.545ZM814.816 600.506C820.289 600.506 824.16 597.811 825.271 593.727L820.648 592.894C819.766 595.263 817.642 596.472 814.865 596.472C810.684 596.472 807.874 593.76 807.743 588.925H825.581V587.193C825.581 578.127 820.158 574.582 814.473 574.582C807.482 574.582 802.875 579.908 802.875 587.618C802.875 595.41 807.416 600.506 814.816 600.506ZM807.76 585.266C807.956 581.705 810.537 578.617 814.506 578.617C818.296 578.617 820.779 581.427 820.795 585.266H807.76ZM860.136 581.035C859.123 577.131 856.069 574.582 850.645 574.582C844.977 574.582 840.959 577.572 840.959 582.015C840.959 585.576 843.115 587.945 847.819 588.99L852.067 589.921C854.484 590.46 855.611 591.538 855.611 593.107C855.611 595.05 853.537 596.57 850.335 596.57C847.411 596.57 845.532 595.312 844.944 592.845L840.224 593.564C841.04 598.007 844.732 600.506 850.368 600.506C856.428 600.506 860.626 597.288 860.626 592.747C860.626 589.202 858.372 587.013 853.765 585.952L849.78 585.037C847.019 584.384 845.827 583.452 845.843 581.754C845.827 579.826 847.917 578.454 850.694 578.454C853.733 578.454 855.138 580.136 855.709 581.819L860.136 581.035ZM875.645 600.506C881.575 600.506 885.414 596.945 885.953 592.061H881.199C880.579 594.773 878.471 596.374 875.678 596.374C871.545 596.374 868.883 592.927 868.883 587.455C868.883 582.08 871.594 578.699 875.678 578.699C878.782 578.699 880.677 580.659 881.199 583.011H885.953C885.43 577.947 881.297 574.582 875.596 574.582C868.523 574.582 863.949 579.908 863.949 587.569C863.949 595.132 868.36 600.506 875.645 600.506ZM890.256 600H895.14V584.678C895.14 581.394 897.672 579.026 901.135 579.026C902.148 579.026 903.292 579.205 903.684 579.32V574.648C903.194 574.582 902.23 574.533 901.609 574.533C898.669 574.533 896.153 576.2 895.238 578.895H894.977V574.909H890.256V600ZM916.906 600.506C922.378 600.506 926.25 597.811 927.36 593.727L922.738 592.894C921.855 595.263 919.732 596.472 916.955 596.472C912.773 596.472 909.963 593.76 909.833 588.925H927.671V587.193C927.671 578.127 922.247 574.582 916.563 574.582C909.571 574.582 904.965 579.908 904.965 587.618C904.965 595.41 909.506 600.506 916.906 600.506ZM909.849 585.266C910.045 581.705 912.626 578.617 916.595 578.617C920.385 578.617 922.868 581.427 922.885 585.266H909.849ZM942.984 600.506C948.456 600.506 952.328 597.811 953.438 593.727L948.816 592.894C947.933 595.263 945.81 596.472 943.033 596.472C938.851 596.472 936.041 593.76 935.911 588.925H953.749V587.193C953.749 578.127 948.325 574.582 942.641 574.582C935.649 574.582 931.043 579.908 931.043 587.618C931.043 595.41 935.584 600.506 942.984 600.506ZM935.927 585.266C936.123 581.705 938.704 578.617 942.673 578.617C946.463 578.617 948.946 581.427 948.963 585.266H935.927ZM963.132 585.102C963.132 581.1 965.582 578.813 968.98 578.813C972.296 578.813 974.306 580.986 974.306 584.629V600H979.19V584.04C979.19 577.833 975.776 574.582 970.646 574.582C966.873 574.582 964.406 576.33 963.247 578.993H962.936V574.909H958.248V600H963.132V585.102ZM1003.62 581.035C1002.61 577.131 999.555 574.582 994.131 574.582C988.463 574.582 984.444 577.572 984.444 582.015C984.444 585.576 986.601 587.945 991.305 588.99L995.552 589.921C997.97 590.46 999.097 591.538 999.097 593.107C999.097 595.05 997.023 596.57 993.821 596.57C990.897 596.57 989.018 595.312 988.43 592.845L983.709 593.564C984.526 598.007 988.218 600.506 993.854 600.506C999.914 600.506 1004.11 597.288 1004.11 592.747C1004.11 589.202 1001.86 587.013 997.251 585.952L993.265 585.037C990.505 584.384 989.312 583.452 989.329 581.754C989.312 579.826 991.403 578.454 994.18 578.454C997.219 578.454 998.623 580.136 999.195 581.819L1003.62 581.035ZM1008.56 600H1013.45V574.909H1008.56V600ZM1011.03 571.038C1012.71 571.038 1014.12 569.731 1014.12 568.13C1014.12 566.529 1012.71 565.206 1011.03 565.206C1009.33 565.206 1007.94 566.529 1007.94 568.13C1007.94 569.731 1009.33 571.038 1011.03 571.038ZM1018.57 600H1038.72V595.753H1025.19V595.524L1038.26 578.47V574.909H1019.02V579.156H1032.17V579.385L1018.57 596.651V600ZM1053.65 600.506C1059.13 600.506 1063 597.811 1064.11 593.727L1059.49 592.894C1058.6 595.263 1056.48 596.472 1053.7 596.472C1049.52 596.472 1046.71 593.76 1046.58 588.925H1064.42V587.193C1064.42 578.127 1059 574.582 1053.31 574.582C1046.32 574.582 1041.71 579.908 1041.71 587.618C1041.71 595.41 1046.25 600.506 1053.65 600.506ZM1046.6 585.266C1046.79 581.705 1049.37 578.617 1053.34 578.617C1057.13 578.617 1059.62 581.427 1059.63 585.266H1046.6ZM1075.08 566.545H1069.7L1070.13 590.379H1074.65L1075.08 566.545ZM1072.38 600.31C1074.16 600.31 1075.65 598.857 1075.65 597.043C1075.65 595.263 1074.16 593.793 1072.38 593.793C1070.58 593.793 1069.11 595.263 1069.11 597.043C1069.11 598.857 1070.58 600.31 1072.38 600.31ZM1087.68 566.545H1082.3L1082.73 590.379H1087.25L1087.68 566.545ZM1084.98 600.31C1086.76 600.31 1088.25 598.857 1088.25 597.043C1088.25 595.263 1086.76 593.793 1084.98 593.793C1083.19 593.793 1081.72 595.263 1081.72 597.043C1081.72 598.857 1083.19 600.31 1084.98 600.31Z" fill="#FFFFE0"/>
</g>
</g>
<defs>
<clipPath id="clip0_2_39">
<rect width="1832" height="960" fill="white"/>
</clipPath>
</defs>
</svg>
